<svg width="391" height="391" viewBox="0 0 391 391" fill="none" xmlns="http://www.w3.org/2000/svg">
    <path d="M195.5 24.4375C101.034 24.4375 24.4375 101.034 24.4375 195.5C24.4375 289.966 101.034 366.562 195.5 366.562C289.966 366.562 366.562 289.966 366.562 195.5C366.562 101.034 289.966 24.4375 195.5 24.4375ZM195.5 337.543C117.071 337.543 53.457 273.929 53.457 195.5C53.457 117.071 117.071 53.457 195.5 53.457C273.929 53.457 337.543 117.071 337.543 195.5C337.543 273.929 273.929 337.543 195.5 337.543Z" fill="#8EFFA7"/>
    <path d="M195.5 53.457C117.071 53.457 53.457 117.071 53.457 195.5C53.457 273.929 117.071 337.543 195.5 337.543C273.929 337.543 337.543 273.929 337.543 195.5C337.543 117.071 273.929 53.457 195.5 53.457ZM258.159 197.867L174.766 258.541C174.309 258.87 173.77 259.066 173.209 259.108C172.647 259.15 172.085 259.037 171.584 258.78C171.083 258.524 170.662 258.134 170.368 257.654C170.074 257.174 169.918 256.622 169.917 256.059L169.917 134.788C169.915 134.224 170.07 133.67 170.363 133.189C170.657 132.707 171.078 132.316 171.58 132.059C172.082 131.802 172.646 131.689 173.208 131.733C173.77 131.776 174.31 131.975 174.766 132.306L258.159 192.942C258.553 193.22 258.875 193.589 259.096 194.018C259.318 194.446 259.434 194.922 259.434 195.405C259.434 195.887 259.318 196.363 259.096 196.791C258.875 197.22 258.553 197.589 258.159 197.867Z" fill="#E6F2F1"/>
    <path d="M258.159 192.942L174.766 132.306C174.31 131.975 173.77 131.776 173.208 131.733C172.646 131.689 172.082 131.802 171.58 132.059C171.078 132.316 170.657 132.707 170.363 133.189C170.07 133.67 169.915 134.224 169.917 134.788L169.917 256.059C169.918 256.622 170.074 257.174 170.368 257.654C170.662 258.134 171.083 258.524 171.584 258.78C172.085 259.037 172.647 259.15 173.209 259.108C173.77 259.066 174.309 258.87 174.766 258.541L258.159 197.867C258.553 197.589 258.875 197.22 259.096 196.791C259.318 196.363 259.434 195.887 259.434 195.405C259.434 194.922 259.318 194.446 259.096 194.018C258.875 193.589 258.553 193.22 258.159 192.942Z" fill="#8EFFA7"/>
    </svg>
    