<svg width="36" height="37" viewBox="0 0 36 37" fill="none" xmlns="http://www.w3.org/2000/svg">
<path d="M34.1099 19.2635C34.8539 18.2922 35.2697 17.0994 35.277 15.8557C35.2886 13.8826 34.1966 12.0085 32.4274 10.9565C31.9719 10.6857 31.4524 10.5416 30.9225 10.5389L20.3846 10.4768L20.6801 5.07758C20.7494 3.77279 20.2952 2.53084 19.4043 1.58074C18.9671 1.11246 18.4386 0.73881 17.8512 0.482887C17.2639 0.226963 16.6304 0.0942027 15.9897 0.0928088C13.7046 0.0793351 11.6741 1.60548 11.0547 3.80352L7.19925 17.448L7.18606 17.4479L7.07516 36.2562L27.8302 36.3786C28.2345 36.381 28.6304 36.3042 28.9961 36.1482C31.0931 35.2684 32.4543 33.2329 32.4676 30.9654C32.4709 30.4117 32.395 29.8663 32.2399 29.3381C32.9839 28.3668 33.3997 27.174 33.407 25.9303C33.4103 25.3766 33.3344 24.8312 33.1793 24.303C33.9233 23.3318 34.3391 22.1389 34.3464 20.8953C34.3409 20.3415 34.265 19.7917 34.1099 19.2635ZM0.102698 18.8125L0.00838177 34.8083C0.00379552 35.5861 0.628497 36.2182 1.40632 36.2228L4.26271 36.2396L4.37361 17.4314L1.51722 17.4145C0.739396 17.4099 0.107284 18.0346 0.102698 18.8125Z" fill="#8EFFA7"/>
</svg>
