<svg width="454" height="454" viewBox="0 0 454 454" fill="none" xmlns="http://www.w3.org/2000/svg">
    <path d="M226.968 29.2867C117.523 29.2867 28.7817 118.028 28.7817 227.473C28.7817 336.918 117.523 425.659 226.968 425.659C336.413 425.659 425.154 336.918 425.154 227.473C425.154 118.028 336.413 29.2867 226.968 29.2867ZM226.968 392.038C136.103 392.038 62.4026 318.338 62.4026 227.473C62.4026 136.608 136.103 62.9076 226.968 62.9076C317.833 62.9076 391.533 136.608 391.533 227.473C391.533 318.338 317.833 392.038 226.968 392.038Z" fill="#545454"/>
    <path d="M226.968 62.9076C136.103 62.9076 62.4023 136.608 62.4023 227.473C62.4023 318.338 136.103 392.038 226.968 392.038C317.833 392.038 391.533 318.338 391.533 227.473C391.533 136.608 317.833 62.9076 226.968 62.9076ZM299.562 230.216L202.946 300.51C202.417 300.89 201.792 301.118 201.142 301.167C200.492 301.215 199.84 301.084 199.26 300.787C198.679 300.49 198.192 300.038 197.851 299.482C197.51 298.926 197.329 298.287 197.328 297.634L197.328 157.135C197.326 156.481 197.505 155.84 197.845 155.281C198.185 154.723 198.673 154.27 199.255 153.973C199.837 153.675 200.49 153.544 201.141 153.594C201.793 153.645 202.418 153.875 202.946 154.259L299.562 224.509C300.019 224.832 300.391 225.259 300.648 225.756C300.905 226.252 301.039 226.803 301.039 227.362C301.039 227.921 300.905 228.472 300.648 228.969C300.391 229.465 300.019 229.893 299.562 230.216Z" fill="#E6F2F1"/>
    <path d="M299.562 224.509L202.947 154.259C202.418 153.875 201.793 153.645 201.141 153.595C200.49 153.544 199.837 153.675 199.255 153.973C198.673 154.27 198.185 154.723 197.845 155.282C197.505 155.84 197.326 156.481 197.328 157.135L197.328 297.634C197.329 298.287 197.51 298.926 197.851 299.482C198.192 300.038 198.679 300.49 199.26 300.787C199.84 301.084 200.492 301.215 201.142 301.167C201.793 301.118 202.417 300.891 202.947 300.51L299.562 230.216C300.019 229.893 300.391 229.465 300.648 228.969C300.905 228.472 301.039 227.921 301.039 227.362C301.039 226.803 300.905 226.252 300.648 225.756C300.391 225.259 300.019 224.832 299.562 224.509Z" fill="#545454"/>
    </svg>
    