<svg width="41" height="27" viewBox="0 0 41 27" fill="none" xmlns="http://www.w3.org/2000/svg">
<path d="M20.3329 0.113124C5.02191 0.0270549 0.342136 12.6554 0.29922 12.7833L0.0828582 13.3864L0.289739 13.9919C0.333077 14.1203 4.85633 26.8003 20.1673 26.8864C35.4782 26.9725 40.158 14.3441 40.2009 14.2162L40.4173 13.6131L40.2104 13.0076C40.1671 12.8793 35.6438 0.199193 20.3329 0.113124ZM20.2028 21.1493C15.7778 21.1244 12.2004 17.6734 12.2265 13.4547C12.2526 9.23595 15.8724 5.82538 20.2974 5.85025C24.7224 5.87513 28.2997 9.32616 28.2736 13.5449C28.2475 17.7636 24.6277 21.1741 20.2028 21.1493Z" fill="#F6BC58"/>
<path d="M20.2735 9.67514C18.0991 9.66292 16.2509 11.4043 16.2381 13.4773C16.2252 15.5504 18.0518 17.3124 20.2262 17.3246C22.4006 17.3369 24.2488 15.5955 24.2616 13.5224C24.2744 11.4494 22.4479 9.68736 20.2735 9.67514Z" fill="#F6BC58"/>
</svg>

