<svg width="35" height="33" viewBox="0 0 35 33" fill="none" xmlns="http://www.w3.org/2000/svg">
<path d="M1.83544 15.8149C1.12942 16.6813 0.73493 17.7454 0.727972 18.8549C0.716933 20.615 1.75314 22.2869 3.43197 23.2254C3.86417 23.4669 4.35718 23.5955 4.85998 23.5979L14.8595 23.6533L14.5791 28.4699C14.5134 29.6339 14.9443 30.7418 15.7897 31.5894C16.2046 32.0071 16.7062 32.3405 17.2635 32.5688C17.8208 32.7971 18.422 32.9155 19.0299 32.9167C21.1983 32.9288 23.125 31.5673 23.7128 29.6065L27.3713 17.4344L27.3838 17.4345L27.489 0.655868L7.79434 0.546697C7.41071 0.54457 7.03497 0.613053 6.68798 0.752264C4.6981 1.53707 3.40649 3.35288 3.3938 5.37572C3.3907 5.86967 3.46271 6.35619 3.60988 6.82746C2.90387 7.69386 2.50938 8.75802 2.50242 9.86744C2.49932 10.3614 2.57133 10.8479 2.7185 11.3192C2.01249 12.1856 1.618 13.2497 1.61104 14.3592C1.61628 14.8532 1.68826 15.3436 1.83544 15.8149ZM34.1053 16.2172L34.1948 1.94756C34.1991 1.25368 33.6063 0.689778 32.8682 0.685686L30.1578 0.670662L30.0525 17.4493L32.763 17.4643C33.5011 17.4684 34.1009 16.9111 34.1053 16.2172Z" fill="#F37E7E"/>
</svg>
