<svg width="25" height="25" viewBox="0 0 25 25" fill="none" xmlns="http://www.w3.org/2000/svg">
<path d="M21.3258 3.67163C20.1687 2.50733 18.7924 1.58345 17.2763 0.953242C15.7602 0.323039 14.1342 -0.00101657 12.4922 -0.000242758C5.58161 -0.000242758 0 5.59351 0 12.4998C0 19.406 5.58161 24.9998 12.4922 24.9998C18.324 24.9998 23.1864 21.0154 24.5779 15.6248H21.3258C20.6818 17.4521 19.4862 19.0347 17.9039 20.1542C16.3217 21.2737 14.4308 21.8748 12.4922 21.8748C7.31707 21.8748 3.11132 17.6716 3.11132 12.4998C3.11132 7.32788 7.31707 3.12476 12.4922 3.12476C15.0876 3.12476 17.4015 4.20288 19.0901 5.90601L14.0557 10.9373H25V-0.000242758L21.3258 3.67163Z" fill="#222222"/>
</svg>
